<?xml version="1.0" encoding="utf-8"?>
<svg version="1.1" xmlns="http://www.w3.org/2000/svg" viewBox="0 0 96 96" enable-background="new 0 0 96 96">
 <g id="ico_x5F_9">
  <path d="M24,56c-3.1-2.6-5-6.6-5-11.1c0-7.6,5.6-13.8,12.7-14c-0.8,2.7-0.5,5.4,2.4,6.6c-0.1-1.9,0.5-4.1,1.3-6.2l0,0
		c0-0.1,0.1-0.1,0.1-0.2c0.4-0.9,0.8-1.8,1.2-2.6c2.4-3.9,7-6.6,12.1-6.6c7.4,0,13.4,5.3,14,12.2c-3,0.6-5,2.2-4.2,6.1
		c1.1-0.8,2.5-1.5,3.9-2l0,0c0.3-0.1,0.6-0.2,0.9-0.3c0.1,0,0.1,0,0.2,0c1-0.3,2-0.4,3.1-0.4C73,37.5,78,42.3,78,48.2
		c0,3-1.3,5.8-3.5,7.7h6.4c1.3-2.3,2.1-4.9,2.1-7.7c0-8.3-6.8-15.2-15.3-15.7c-1.4-9-9.3-15.6-18.8-15.6c-6.7,0-12.9,3.4-16.4,8.9
		l0,0c-0.3,0-0.5-0.1-0.8-0.1c-0.1,0-0.1,0-0.2,0C21.7,26,14,34.4,14,44.7c0,4.1,1.2,7.9,3.3,11.1H24V56z" opacity="0.66" fill="#ffffff"/>
  <path d="M19.5,60h59c1.4,0,2.5,0.9,2.5,2s-1.1,2-2.5,2h-59c-1.4,0-2.5-0.9-2.5-2S18.1,60,19.5,60z" opacity="0.66" fill="#ffffff"/>
  <path d="M19.5,68h59c1.4,0,2.5,0.9,2.5,2s-1.1,2-2.5,2h-59c-1.4,0-2.5-0.9-2.5-2S18.1,68,19.5,68z" opacity="0.66" fill="#ffffff"/>
  <path d="M19.5,76h59c1.4,0,2.5,0.9,2.5,2s-1.1,2-2.5,2h-59c-1.4,0-2.5-0.9-2.5-2S18.1,76,19.5,76z" opacity="0.66" fill="#ffffff"/>
 </g>
</svg>
