<?xml version="1.0" encoding="utf-8"?>
<svg version="1.1" xmlns="http://www.w3.org/2000/svg" viewBox="0 0 96 96" enable-background="new 0 0 96 96">
 <g id="ico_x5F_6">
  <g id="ico_x5F_6_1_">
   <path d="M56.2,52c4,0,7.3,2.7,7.6,6.2c-1.6,0.3-2.7,1.1-2.3,3.1c0.6-0.4,1.3-0.8,2.1-1l0,0c0.2-0.1,0.3-0.1,0.5-0.2
			h0.1c0.5-0.1,1.1-0.2,1.7-0.2c3.4,0,6.1,2.5,6.1,5.5c0,2.9-2.5,5.3-5.6,5.5l0,0H46l0,0c-3.4-0.5-6-3.6-6-7.2
			c0-3.9,3.1-7.1,6.9-7.2c-0.4,1.4-0.3,2.8,1.3,3.4c0-1,0.3-2.1,0.7-3.2l0,0v-0.1c0.2-0.5,0.4-0.9,0.7-1.3
			C50.9,53.4,53.4,52,56.2,52 M56.2,48c-3.8,0-7.3,1.7-9.5,4.6c-6,0.2-10.7,5.1-10.7,11.2c0,5.2,3.4,9.6,8.3,10.9
			c0.5,0.2,1.1,0.4,1.7,0.4h20.5c0.3,0,0.6,0,0.9-0.1c5-0.7,8.7-4.6,8.7-9.4c0-4.7-3.7-8.7-8.6-9.4C66.1,51.4,61.6,48,56.2,48
			L56.2,48z" fill="#ffffff"/>
   <path d="M79.5,43.2c-1.2-2.5-3.8-4.2-6.9-4.2c-2.1,0-4.1,0.8-5.5,2.3c-2.4,0.4-4.4,2-5.4,4.2c1.3,0.5,2.5,1.1,3.6,1.9
			c0.5-1.2,1.6-2.1,3-2.2c-0.2,0.7-0.1,1.3,0.6,1.6c0-0.5,0.1-1,0.3-1.5l0,0c0,0,0,0,0-0.1c0.1-0.2,0.2-0.4,0.3-0.6
			c0.6-1,1.8-1.6,3.1-1.6c1.9,0,3.4,1.3,3.6,3c-0.8,0.1-1.3,0.5-1.1,1.5c0.3-0.2,0.6-0.4,1-0.5l0,0c0.1,0,0.2-0.1,0.2-0.1l0,0
			c0.2-0.1,0.5-0.1,0.8-0.1c1.6,0,2.9,1.2,2.9,2.6c0,1.4-1.2,2.5-2.6,2.6l0,0h-7.9c0.2,0.4,0.4,0.7,0.6,1.1c1.9,0.6,3.6,1.6,5.1,2.9
			h2.2c0.3,0,0.5,0,0.8-0.1c3.4-0.5,5.8-3.2,5.8-6.5C84,46.5,82.1,44.1,79.5,43.2z" fill="#ffffff"/>
   <path d="M32,63.8c0-0.6,0-1.2,0.1-1.8H19.9l0,0c-2.2-0.4-3.9-2.5-3.9-5c0-2.7,2-4.9,4.5-4.9c-0.3,1-0.2,1.9,0.9,2.3
			c0-0.7,0.2-1.5,0.5-2.2l0,0v-0.1c0.1-0.3,0.3-0.6,0.4-0.9c0.9-1.4,2.5-2.3,4.3-2.3c2.6,0,4.8,1.9,5,4.3c-1.1,0.2-1.8,0.8-1.5,2.1
			c0.4-0.3,0.9-0.5,1.4-0.7l0,0c0.1,0,0.2-0.1,0.3-0.1c0,0,0,0,0.1,0c0.3-0.1,0.7-0.1,1.1-0.1c0.7,0,1.3,0.2,1.8,0.4
			c0.8-1.1,1.7-2.1,2.8-3c-0.8-0.5-1.6-0.9-2.5-1.2c-1.2-3.4-4.6-5.7-8.5-5.7c-2.7,0-5.3,1.2-7,3.2C15.3,48.6,12,52.4,12,57
			c0,4.4,3.1,8.2,7.2,8.9c0.2,0,0.4,0.1,0.7,0.1c0.1,0,0.2,0,0.3,0h12C32.1,65.3,32,64.5,32,63.8z" fill="#ffffff"/>
   <path d="M36.2,45.1c2.6-3.8,6.9-6.3,11.8-6.3c4.1,0,7.7,1.7,10.3,4.5c0.8-1.5,1.8-2.7,3.1-3.7C58,36.1,53.2,34,48,34
			c-6.5,0-12.3,3.3-15.7,8.3C33.8,43,35.1,43.9,36.2,45.1z" fill="#febc09"/>
   <path d="M46.5,30h2c0.8,0,1.5-0.7,1.5-1.5v-12c0-0.8-0.7-1.5-1.5-1.5h-2c-0.8,0-1.5,0.7-1.5,1.5v12
			C45,29.3,45.7,30,46.5,30z" fill="#febc09"/>
   <path d="M28.6,37.8c0.6,0.6,1.5,0.6,2.1,0l1.4-1.4c0.6-0.6,0.6-1.5,0-2.1l-8.5-8.5c-0.6-0.6-1.5-0.6-2.1,0l-1.4,1.4
			c-0.6,0.6-0.6,1.5,0,2.1L28.6,37.8z" fill="#febc09"/>
   <path d="M64.6,37.1c0.6,0.6,1.5,0.6,2.1,0l8.5-8.5c0.6-0.6,0.6-1.5,0-2.1l-1.4-1.4c-0.6-0.6-1.5-0.6-2.1,0l-8.5,8.5
			c-0.6,0.6-0.6,1.5,0,2.1L64.6,37.1z" fill="#febc09"/>
  </g>
 </g>
</svg>
