<?xml version="1.0" encoding="utf-8"?>
<svg version="1.1" xmlns="http://www.w3.org/2000/svg" viewBox="0 0 96 96" enable-background="new 0 0 96 96">
 <g id="ico_x5F_7">
  <g id="ico_x5F_7_1_">
   <path d="M48.4,29c8.2,0,15,5.5,15.7,12.5c-3.4,0.6-5.6,2.3-4.7,6.2c1.3-0.8,2.8-1.5,4.3-2l0,0c0.3-0.1,0.7-0.2,1-0.3
			c0.1,0,0.1,0,0.2,0c1.1-0.3,2.2-0.4,3.4-0.4c7,0,12.7,4.9,12.7,11c0,5.8-5.1,10.5-11.5,11l0,0H27.3l0,0c-7-1.1-12.3-7.2-12.3-14.4
			c0-7.8,6.3-14.2,14.2-14.4c-0.9,2.8-0.6,5.5,2.7,6.8c-0.1-2,0.6-4.2,1.5-6.3l0,0c0-0.1,0.1-0.1,0.1-0.2c0.4-0.9,0.9-1.8,1.4-2.7
			C37.6,31.7,42.6,29,48.4,29 M48.4,24c-7.3,0-13.9,3.3-17.7,8.9c0,0.1-0.1,0.1-0.1,0.2c0,0-0.1,0.1-0.1,0.2
			c-0.4-0.1-0.9-0.2-1.3-0.2h-0.1C18.4,33.5,10,42,10,52.6c0,9.1,6.2,16.8,15,18.9c0.7,0.4,1.5,0.6,2.3,0.6h42.2
			c0.4,0,0.8-0.1,1.2-0.1C79.5,70.8,86,64.1,86,56c0-8.7-7.6-15.7-17.1-16C67.4,30.8,58.8,24,48.4,24L48.4,24z" fill="#ffffff"/>
  </g>
 </g>
</svg>
