<?xml version="1.0" encoding="UTF-8" standalone="no"?>
<svg
   xmlns:dc="http://purl.org/dc/elements/1.1/"
   xmlns:cc="http://creativecommons.org/ns#"
   xmlns:rdf="http://www.w3.org/1999/02/22-rdf-syntax-ns#"
   xmlns:svg="http://www.w3.org/2000/svg"
   xmlns="http://www.w3.org/2000/svg"
   xmlns:sodipodi="http://sodipodi.sourceforge.net/DTD/sodipodi-0.dtd"
   xmlns:inkscape="http://www.inkscape.org/namespaces/inkscape"
   version="1.1"
   id="svg6476"
   viewBox="0 0 107 19"
   height="19"
   width="107"
   inkscape:version="0.91pre3 r13670"
   sodipodi:docname="poczta-logo-2-0.svg">
  <sodipodi:namedview
     pagecolor="#ffffff"
     bordercolor="#666666"
     borderopacity="1"
     objecttolerance="10"
     gridtolerance="10"
     guidetolerance="10"
     inkscape:pageopacity="0"
     inkscape:pageshadow="2"
     inkscape:window-width="1920"
     inkscape:window-height="1028"
     id="namedview9"
     showgrid="false"
     inkscape:zoom="14.352473"
     inkscape:cx="55.478249"
     inkscape:cy="0.85150016"
     inkscape:window-x="1072"
     inkscape:window-y="408"
     inkscape:window-maximized="1"
     inkscape:current-layer="svg6476"
     units="px" />
  <defs
     id="defs6478" />
  <metadata
     id="metadata6481">
    <rdf:RDF>
      <cc:Work
         rdf:about="">
        <dc:format>image/svg+xml</dc:format>
        <dc:type
           rdf:resource="http://purl.org/dc/dcmitype/StillImage" />
        <dc:title></dc:title>
      </cc:Work>
    </rdf:RDF>
  </metadata>
  <g
     style="fill:#002d53;fill-opacity:1"
     id="g17"
     transform="matrix(0.78999439,0,0,0.72438904,-17.599494,-4.9874187)">
    <path
       style="fill:#002d53;fill-opacity:1"
       id="path10"
       d="m 33.031,7.191 -10.753,0 0,25.657 6.852,0 0,-7.614 3.901,0 c 6.451,0 10.158,-3.306 10.158,-9.043 -10e-4,-5.691 -3.708,-9 -10.158,-9 z m -0.639,12.58 -3.263,0 0,-7.194 3.263,0 c 3.024,0 3.981,2.003 3.981,3.614 0.001,1.695 -0.956,3.58 -3.981,3.58 z M 56.846,6.926 c -5.691,0 -12.463,2.269 -12.463,13.071 0,10.814 6.771,13.08 12.463,13.08 5.694,0 12.463,-2.266 12.463,-13.08 C 69.309,9.194 62.54,6.926 56.846,6.926 Z m 0,20.497 c -2.907,0 -5.611,-1.309 -5.611,-7.426 0,-6.111 2.704,-7.42 5.611,-7.42 2.911,0 5.614,1.309 5.614,7.42 0,6.117 -2.704,7.426 -5.614,7.426 z m 13.481,-7.426 c 0,10.846 6.771,13.117 12.463,13.117 2.831,0 5.731,-0.729 8.521,-1.806 l 0,-5.728 c -2.907,1.343 -5.376,1.843 -8.126,1.843 -3.142,0 -6.006,-1.346 -6.006,-7.426 0,-6.077 2.864,-7.42 6.006,-7.42 2.75,0 5.219,0.5 8.126,1.846 l 0,-5.732 C 88.521,7.617 85.62,6.885 82.79,6.885 77.099,6.886 70.327,9.154 70.327,19.997 Z m 22.657,-6.92 11.87,0 -11.99,14.312 0,5.46 20.472,0 0,-5.809 -11.623,0 11.623,-14.5 0,-5.349 -20.352,0 0,5.886 z m 43.615,-5.886 -22.222,0 0,6 7.642,0 0,19.657 6.849,0 0,-19.657 7.731,0 0,-6 z m 10.571,0 -6.454,0 -10.552,25.657 7.367,0 2.07,-6.154 8.68,0 2.073,6.154 7.368,0 L 147.17,7.191 Z m -5.939,14.618 2.71,-7.963 2.67,7.963 -5.38,0 z"
       inkscape:connector-curvature="0" />
  </g>
</svg>
