<?xml version="1.0" encoding="UTF-8" standalone="no"?>
<!-- Generator: Adobe Illustrator 16.0.0, SVG Export Plug-In . SVG Version: 6.00 Build 0)  -->

<svg xmlns:dc="http://purl.org/dc/elements/1.1/" xmlns:cc="http://creativecommons.org/ns#" xmlns:rdf="http://www.w3.org/1999/02/22-rdf-syntax-ns#" xmlns:svg="http://www.w3.org/2000/svg" xmlns="http://www.w3.org/2000/svg" xmlns:sodipodi="http://sodipodi.sourceforge.net/DTD/sodipodi-0.dtd" xmlns:inkscape="http://www.inkscape.org/namespaces/inkscape" version="1.1" id="Layer_1" x="0px" y="0px" width="57" height="14.255479" viewBox="0 0 57 14.255479" enable-background="new 0 0 190 48" xml:space="preserve" style="fill:#fff" inkscape:version="0.48.4 r9939" sodipodi:docname="logo.svg"><metadata id="metadata13"><rdf:RDF><cc:Work rdf:about=""><dc:format>image/svg+xml</dc:format><dc:type rdf:resource="http://purl.org/dc/dcmitype/StillImage" /></cc:Work></rdf:RDF></metadata><defs id="defs11" /><sodipodi:namedview pagecolor="#ffffff" bordercolor="#666666" borderopacity="1" objecttolerance="10" gridtolerance="10" guidetolerance="10" inkscape:pageopacity="0" inkscape:pageshadow="2" inkscape:window-width="1920" inkscape:window-height="1028" id="namedview9" showgrid="false" fit-margin-top="0" fit-margin-left="0" fit-margin-right="0" fit-margin-bottom="0" inkscape:zoom="1.5052632" inkscape:cx="95" inkscape:cy="23.518264" inkscape:window-x="-8" inkscape:window-y="-8" inkscape:window-maximized="1" inkscape:current-layer="Layer_1" />
<g id="g3" transform="scale(0.3,0.3)">
	<g id="g5">
		<path d="M 0,47.039 H 10.466 V 14.247 c 0,0 -4.141,-3.905 -10.466,-5.459 v 38.251 z m 131.86,0 h 10.466 V 20.841 8.788 c -6.323,1.554 -10.466,5.459 -10.466,5.459 V 47.039 z M 28.773,8.168 C 20.06,8.475 13.955,14.247 13.955,14.247 V 47.039 H 24.42 V 21.275 c 0.407,-1.652 2.765,-2.76 4.55,-3.147 3.822,-0.832 8.008,1.454 8.008,5.508 v 23.403 h 0.698 9.767 V 23.127 c 0,-11.03 -9.942,-15.268 -18.67,-14.959 z M 184.459,25.811 C 183.45,15.727 175.027,8.123 164.87,8.123 c -10.856,0 -19.688,8.838 -19.688,19.701 0,10.859 8.832,19.693 19.688,19.693 5.124,0 9.964,-1.986 13.689,-5.605 l 1.345,5.127 H 190 L 184.459,25.811 z M 164.87,37.24 c -5.187,0 -9.405,-4.219 -9.405,-9.406 0,-5.184 4.219,-9.404 9.405,-9.404 5.186,0 9.405,4.22 9.405,9.404 0,5.187 -4.218,9.406 -9.405,9.406 z M 88.398,8.212 c -10.814,0 -19.61,8.797 -19.61,19.608 0,10.814 8.796,19.609 19.61,19.609 8.115,0 15.278,-4.883 18.248,-12.436 l 0.16,-0.41 H 95.502 l -0.087,0.092 c -1.864,1.906 -4.356,2.957 -7.017,2.957 -3.888,0 -7.449,-2.35 -8.996,-5.891 h 28.208 l 0.047,-0.244 c 0.231,-1.225 0.35,-2.459 0.35,-3.678 C 108.006,17.009 99.21,8.212 88.398,8.212 z m -8.848,15.36 c 1.63,-3.394 5.056,-5.563 8.848,-5.563 3.792,0 7.213,2.168 8.845,5.563 H 79.55 z M 125.751,8.168 c -8.715,0.307 -14.819,6.079 -14.819,6.079 v 32.792 h 10.465 V 20.776 c 1.226,-1.884 5.345,-2.695 6.976,-2.763 V 8.215 c -0.88,-0.061 -1.757,-0.077 -2.622,-0.047 z M 61.396,8.635 V 0 H 50.932 v 41.424 c 0,0 6.104,5.771 14.819,6.08 0.866,0.029 1.743,0.014 2.623,-0.047 V 37.66 c -1.63,-0.068 -5.751,-0.879 -6.977,-2.766 V 19.131 h 6.977 V 8.667 H 61.397 V 8.635 z" id="path7" inkscape:connector-curvature="0" />
	</g>
</g>
</svg>