<?xml version="1.0" encoding="UTF-8" standalone="no"?>
<!-- Generator: Adobe Illustrator 16.0.0, SVG Export Plug-In . SVG Version: 6.00 Build 0)  -->

<svg xmlns:dc="http://purl.org/dc/elements/1.1/" xmlns:cc="http://creativecommons.org/ns#" xmlns:rdf="http://www.w3.org/1999/02/22-rdf-syntax-ns#" xmlns:svg="http://www.w3.org/2000/svg" xmlns="http://www.w3.org/2000/svg" xmlns:sodipodi="http://sodipodi.sourceforge.net/DTD/sodipodi-0.dtd" xmlns:inkscape="http://www.inkscape.org/namespaces/inkscape" version="1.1" id="Layer_1" x="0px" y="0px" width="34" height="5.9241066" viewBox="0 0 34 5.9241066" enable-background="new 0 0 123 22" xml:space="preserve" style="fill:#fff" inkscape:version="0.48.4 r9939" sodipodi:docname="logo-poczta.svg"><metadata id="metadata21"><rdf:RDF><cc:Work rdf:about=""><dc:format>image/svg+xml</dc:format><dc:type rdf:resource="http://purl.org/dc/dcmitype/StillImage" /></cc:Work></rdf:RDF></metadata><defs id="defs19" /><sodipodi:namedview pagecolor="#ffffff" bordercolor="#666666" borderopacity="1" objecttolerance="10" gridtolerance="10" guidetolerance="10" inkscape:pageopacity="0" inkscape:pageshadow="2" inkscape:window-width="1920" inkscape:window-height="1028" id="namedview17" showgrid="false" fit-margin-top="0" fit-margin-left="0" fit-margin-right="0" fit-margin-bottom="0" inkscape:zoom="2.3252033" inkscape:cx="59.963" inkscape:cy="10.587" inkscape:window-x="-8" inkscape:window-y="-8" inkscape:window-maximized="1" inkscape:current-layer="Layer_1" />
<g id="g3" transform="matrix(0.28053731,0,0,0.28053731,-0.43118585,-0.13185254)">
	<path d="m 1.537,0.877 h 8.702 c 5.134,0 8.441,2.64 8.441,7.136 V 8.07 c 0,4.786 -3.684,7.31 -8.731,7.31 H 7.165 v 5.802 H 1.537 V 0.877 z m 8.296,10.094 c 2.001,0 3.22,-1.044 3.22,-2.64 V 8.273 c 0,-1.74 -1.218,-2.668 -3.249,-2.668 h -2.64 v 5.366 h 2.669 z" id="path5" inkscape:connector-curvature="0" />
	<path d="m 20.067,11.087 v -0.058 c 0,-5.831 4.699,-10.559 10.965,-10.559 6.266,0 10.907,4.67 10.907,10.5 v 0.058 c 0,5.83 -4.699,10.559 -10.965,10.559 -6.266,0 -10.907,-4.67 -10.907,-10.5 z m 16.128,0 v -0.058 c 0,-2.93 -2.117,-5.482 -5.221,-5.482 -3.075,0 -5.134,2.495 -5.134,5.424 v 0.058 c 0,2.93 2.118,5.482 5.192,5.482 3.104,0.001 5.163,-2.493 5.163,-5.424 z" id="path7" inkscape:connector-curvature="0" />
	<path d="M 43.876,11.087 V 11.029 C 43.876,5.112 48.43,0.47 54.58,0.47 c 4.148,0 6.817,1.74 8.615,4.235 L 58.96,7.983 c -1.161,-1.45 -2.495,-2.378 -4.438,-2.378 -2.843,0 -4.844,2.408 -4.844,5.366 v 0.058 c 0,3.045 2.001,5.424 4.844,5.424 2.117,0 3.365,-0.986 4.583,-2.467 l 4.235,3.018 c -1.915,2.639 -4.496,4.583 -8.992,4.583 -5.802,0.001 -10.472,-4.437 -10.472,-10.5 z" id="path9" inkscape:connector-curvature="0" />
	<path d="M 64.814,17.092 74.996,5.634 H 65.163 V 0.877 H 82.77 v 4.09 L 72.588,16.424 H 82.77 v 4.758 H 64.814 v -4.09 z" id="path11" inkscape:connector-curvature="0" />
	<path d="M 90.365,5.808 H 84.273 V 0.877 h 17.811 V 5.808 H 95.992 V 21.182 H 90.365 V 5.808 z" id="path13" inkscape:connector-curvature="0" />
	<path d="m 108.664,0.732 h 5.424 l 8.645,20.45 H 116.7 l -1.479,-3.625 h -7.832 l -1.451,3.625 h -5.918 l 8.644,-20.45 z m 4.932,12.444 -2.264,-5.772 -2.292,5.772 h 4.556 z" id="path15" inkscape:connector-curvature="0" />
</g>
</svg>